<svg id="Solid" height="512" viewBox="0 0 512 512" width="512" xmlns="http://www.w3.org/2000/svg"><ellipse cx="240" cy="240" rx="8.836" ry="10.148"/><path d="m256 32c-101.458 0-184 82.542-184 184a183.639 183.639 0 0 0 80.315 152h207.391a183.962 183.962 0 0 0 80.294-152c0-101.458-82.542-184-184-184zm-80 176a8 8 0 0 1 -16 0c0-40.566-32.241-47.873-33.614-48.165a8.006 8.006 0 0 1 .045-15.68c1.328-.282 33.569-7.589 33.569-48.155a8 8 0 0 1 16 0c0 40.566 32.241 47.873 33.614 48.165a8.005 8.005 0 0 1 0 15.671c-1.447.308-33.614 7.645-33.614 48.164zm90.6 39.567c-.911.329-18.6 7.05-18.6 32.433a8 8 0 0 1 -16 0c0-25.934-18.345-32.349-18.53-32.411a8 8 0 0 1 0-15.178c.683-.245 18.53-6.911 18.53-32.411a8 8 0 0 1 16 0c0 25.934 18.345 32.349 18.53 32.411a8 8 0 0 1 .066 15.156zm29.4-143.567h-8v16a8 8 0 0 1 -16 0v-16h-8a8 8 0 0 1 0-16h8v-16a8 8 0 0 1 16 0v16h8a8 8 0 0 1 0 16zm44.379-.867a8 8 0 0 1 7.2-14.288c.731.365 18.1 9.242 35.078 34.717a8 8 0 1 1 -13.312 8.876c-14.433-21.647-28.823-29.23-28.966-29.305zm42.175 205.455a8 8 0 0 1 -13.108-9.176c52.358-74.8 16.142-134.577 15.77-135.172a8 8 0 0 1 13.568-8.48c.447.716 10.993 17.846 14.163 45.323 2.896 25.099-.026 64.123-30.393 107.505z"/><path d="m168 130.282a58.7 58.7 0 0 1 -15 17.965 60.937 60.937 0 0 1 -5.244 3.753 60.937 60.937 0 0 1 5.244 3.753 58.7 58.7 0 0 1 15 17.965 58.7 58.7 0 0 1 15-17.965 60.937 60.937 0 0 1 5.244-3.753 60.937 60.937 0 0 1 -5.244-3.753 58.7 58.7 0 0 1 -15-17.965z"/><path d="m368 384h-224a8.009 8.009 0 0 0 -8 8v8h240v-8a8.009 8.009 0 0 0 -8-8z"/><path d="m131.314 416-32 32h60.686a8 8 0 0 1 0 16h-72v16h336v-16h-232a8 8 0 0 1 0-16h220.686l-32-32z"/></svg>